Coordinates
version=1
nRows=17
nColumns=36
inDegrees=yes

Units are S.I. units (second, meters, Newtons, ...)
If the header above contains a line with 'inDegrees', this indicates whether rotational values are in degrees (yes) or radians (no).

endheader
time	pelvis_tilt	pelvis_list	pelvis_rotation	pelvis_tx	pelvis_ty	pelvis_tz	hip_flexion_r	hip_adduction_r	hip_rotation_r	knee_angle_r	knee_angle_r_beta	ankle_angle_r	subtalar_angle_r	mtp_angle_r	hip_flexion_l	hip_adduction_l	hip_rotation_l	knee_angle_l	knee_angle_l_beta	ankle_angle_l	subtalar_angle_l	mtp_angle_l	lumbar_extension	lumbar_bending	lumbar_rotation	arm_flex_r	arm_add_r	arm_rot_r	elbow_flex_r	pro_sup_r	arm_flex_l	arm_add_l	arm_rot_l	elbow_flex_l	pro_sup_l
      0.65000000	     -3.98417816	     -1.68485755	     -6.55163814	      0.68985223	      0.88480187	     -0.20850770	     -9.89631027	      2.72494754	      4.58938633	     26.66488465	      0.46539003	      1.57750436	     -0.96131876	     -6.78750061	     29.50707322	     -0.12561305	      1.99862965	     18.17231461	      0.31716672	     -1.12566010	    -10.73468815	     -6.78750061	     -4.41628990	      3.73796331	      9.99630460	     15.39774279	    -17.54640168	     12.65830739	     58.92026384	    105.53272416	    -11.18370575	     -8.22711635	    -11.78868500	     32.90758590	    101.36826319
      0.66000000	     -3.97640025	     -1.34373478	     -6.19533375	      0.70400710	      0.88544053	     -0.21042517	     -8.87189305	      1.91310172	      3.18581220	     29.47971065	      0.51451801	     -0.81778354	     -0.44477021	     -6.79753798	     29.19765634	      0.52859396	      1.71619975	     19.17137704	      0.33460365	     -1.20243754	    -10.84592885	     -6.79753798	     -4.23608003	      3.29498950	      9.34632581	     14.56984751	    -17.20534519	     12.37301746	     58.62113446	    105.50876075	    -11.16006252	     -8.34463052	    -11.74797184	     32.81639921	    101.37523128
      0.67000000	     -3.91587176	     -1.00440791	     -5.83444471	      0.71789227	      0.88623661	     -0.21236717	     -7.68415141	      1.03866021	      1.76657328	     32.58717854	      0.56875356	     -3.34121741	      0.00970861	     -6.80578213	     28.85225999	      1.20204938	      1.54563187	     20.27730002	      0.35390565	     -0.86276407	    -11.04085111	     -6.80578213	     -4.17857358	      2.85089610	      8.64334132	     13.78921574	    -16.85756205	     12.11308968	     58.28817384	    105.48843258	    -11.07195898	     -8.47638388	    -11.65924951	     32.79123314	    101.40218019
      0.68000000	     -3.91769405	     -0.62090673	     -5.36847065	      0.73158190	      0.88695239	     -0.21447949	     -6.24110889	      0.04107632	      0.16170752	     35.91287959	      0.62679799	     -6.12222301	      0.47972406	     -6.82046296	     28.61338419	      1.99957213	      1.69199979	     21.52316702	      0.37565013	     -0.30035290	    -11.12064254	     -6.82046296	     -4.05601279	      2.36768582	      7.85520107	     12.93503329	    -16.47769311	     11.68428698	     57.86205506	    105.48290887	    -10.93844498	     -8.66174625	    -11.44993676	     32.83503801	    101.48802494
      0.69000000	     -3.80384976	     -0.19457604	     -4.99467089	      0.74499991	      0.88790637	     -0.21642786	     -4.71544600	     -1.06480917	     -1.26297022	     39.46765457	      0.68884052	     -9.03497543	      0.56272484	     -6.82955519	     28.12124500	      2.81069650	      1.74311208	     22.55920351	      0.39373238	      0.50121348	    -11.41375074	     -6.82955519	     -4.13589285	      1.82588421	      7.12014159	     12.15342786	    -16.14947747	     11.40088877	     57.41808092	    105.47239843	    -10.72862683	     -8.85181441	    -11.26106520	     32.92955376	    101.57459627
      0.70000000	     -3.70286999	      0.21435133	     -4.58079772	      0.75813142	      0.88885103	     -0.21832916	     -3.03716998	     -2.15642825	     -2.58045096	     43.11492273	      0.75249736	    -12.15886954	      0.21912252	     -6.83995269	     27.56411564	      3.63984534	      2.01357111	     23.44787483	      0.40924262	      1.29340848	    -11.64550383	     -6.83995269	     -4.23467582	      1.30709776	      6.33100976	     11.36278397	    -15.77514706	     11.04490502	     56.89438942	    105.46427305	    -10.45760412	     -9.10207576	    -10.98975890	     33.12184608	    101.71616615
      0.71000000	     -3.54601734	      0.63497017	     -4.23699517	      0.77092815	      0.88989940	     -0.22001222	     -1.27468149	     -3.25012500	     -3.65803811	     46.81450823	      0.81706731	    -15.12202283	     -0.48452748	     -6.84877420	     26.81255210	      4.44932689	      2.26415156	     24.07122680	      0.42012216	      2.11130808	    -11.93323662	     -6.84877420	     -4.46425418	      0.76580461	      5.59701357	     10.61193979	    -15.44950096	     10.75189748	     56.35330132	    105.45745144	    -10.11542690	     -9.34598750	    -10.70642934	     33.36172325	    101.87226914
      0.72000000	     -3.37399251	      1.02990321	     -3.92649476	      0.78345523	      0.89103056	     -0.22155243	      0.54564357	     -4.25468095	     -4.47806328	     50.42781295	      0.88013137	    -17.76330462	     -1.60811767	     -6.85689177	     25.92971866	      5.21995805	      2.55942064	     24.45346386	      0.42679346	      2.87603546	    -12.21030765	     -6.85689177	     -4.72397931	      0.27494797	      4.89266469	      9.87854307	    -15.15586473	     10.49637102	     55.76629247	    105.45307494	     -9.69849153	     -9.59312722	    -10.39392308	     33.67941184	    102.04828245
      0.73000000	     -3.22386758	      1.27936183	     -3.63132307	      0.79574201	      0.89223163	     -0.22286624	      2.43078866	     -4.95784035	     -5.04463386	     53.83802536	      0.93965081	    -20.21011415	     -3.72901454	     -6.86954348	     24.95695976	      5.81382754	      2.93838720	     24.63470520	      0.42995672	      3.48090069	    -12.51493455	     -6.86954348	     -5.01374206	     -0.04909707	      4.24016161	      9.14547666	    -14.88597439	     10.17459434	     55.05401085	    105.48132118	     -9.27834041	     -9.91639659	     -9.93406839	     34.09777457	    102.32615076
      0.74000000	     -3.00708449	      1.49186073	     -3.47371443	      0.80774966	      0.89361149	     -0.22393650	      4.30338793	     -5.55997755	     -5.34783406	     57.07005512	      0.99606037	    -21.48204459	     -5.48167641	     -6.88028653	     23.82432508	      6.31641847	      3.25527718	     24.63234858	      0.42991559	      4.13443983	    -12.83155632	     -6.88028653	     -5.41476596	     -0.33626979	      3.67803514	      8.45206712	    -14.68127445	     10.00876562	     54.37057034	    105.52261948	     -8.72366542	    -10.17244473	     -9.56016888	     34.47668582	    102.55806817
      0.75000000	     -2.82459209	      1.55714261	     -3.34786179	      0.81948789	      0.89505454	     -0.22492886	      6.23558984	     -5.84340905	     -5.44338284	     60.02649234	      1.04765993	    -22.24048852	     -7.84094280	     -6.90072833	     22.70589204	      6.65748370	      3.63820614	     24.57613232	      0.42893443	      4.58778360	    -13.25028393	     -6.90072833	     -5.79426913	     -0.40182387	      3.14191510	      7.83323597	    -14.51383637	      9.72174002	     53.50808195	    105.65992570	     -8.20169056	    -10.46465073	     -8.94688724	     34.92978650	    102.93705163
      0.76000000	     -2.58046416	      1.61197766	     -3.33961390	      0.83109695	      0.89668903	     -0.22574084	      8.13521930	     -6.06098405	     -5.33658212	     62.72059428	      1.09468088	    -21.53709217	     -8.97083628	     -6.90702167	     21.41360279	      6.94119394	      3.93086886	     24.31303976	      0.42434260	      5.29794644	    -13.50912194	     -6.90702167	     -6.24253998	     -0.45109241	      2.74591313	      7.18907359	    -14.44980314	      9.69111430	     52.79173693	    105.68508728	     -7.49082504	    -10.61247497	     -8.76095826	     35.29333074	    103.05672415
      0.77000000	     -2.41919223	      1.56384440	     -3.40275156	      0.84253736	      0.89827050	     -0.22641665	     10.14026105	     -6.04061253	     -5.09564831	     65.10296717	      1.13626113	    -20.22583732	    -10.23883635	     -6.91269844	     20.20801670	      7.08903879	      4.24768606	     24.04059198	      0.41958748	      5.91001478	    -13.77155174	     -6.91269844	     -6.57955849	     -0.36000942	      2.39669967	      6.60173213	    -14.39279563	      9.59358755	     51.91528202	    105.69789576	     -6.84622301	    -10.77257068	     -8.50084004	     35.76354074	    103.18224962
      0.78000000	     -2.34768752	      1.44889382	     -3.49267075	      0.85395100	      0.89978122	     -0.22701404	     12.22501187	     -5.86230357	     -4.83053273	     67.13142395	      1.17166438	    -18.44715137	    -11.33922554	     -6.91964513	     19.07759544	      7.13092753	      4.46891977	     23.71056679	      0.41382746	      6.48438672	    -14.09248139	     -6.91964513	     -6.78469070	     -0.18734060	      2.08202763	      5.99906493	    -14.35634179	      9.47777550	     50.90098495	    105.73024791	     -6.23559591	    -10.93436986	     -8.14494320	     36.29548897	    103.32558794
      0.79000000	     -2.31353260	      1.30542637	     -3.61580943	      0.86529045	      0.90126917	     -0.22755481	     14.32866913	     -5.57307099	     -4.51325591	     68.80060200	      1.20079703	    -16.45031711	    -11.99504738	     -6.92795052	     17.97474493	      7.12282644	      4.63716878	     23.34056334	      0.40736968	      7.00921873	    -14.39534532	     -6.92795052	     -6.93636940	      0.03522448	      1.80441161	      5.40642529	    -14.35831917	      9.38832619	     49.85465468	    105.79498536	     -5.61061365	    -11.09435254	     -7.73453238	     36.83472184	    103.47005060
      0.80000000	     -2.28168097	      1.12605008	     -3.76228024	      0.87661651	      0.90278314	     -0.22796374	     16.39221869	     -5.14905256	     -4.13320233	     70.09687228	      1.22342122	    -14.63183211	    -12.33878304	     -6.93521089	     16.82911965	      7.05336803	      4.77813212	     22.88392673	      0.39939987	      7.49152664	    -14.58415722	     -6.93521089	     -7.07268711	      0.30228946	      1.56091735	      4.77873844	    -14.42035501	      9.34659907	     48.88848587	    105.85823188	     -4.96628970	    -11.25286129	     -7.39951839	     37.35683901	    103.58383807
      0.81000000	     -2.29185659	      1.00248941	     -3.83650393	      0.88793299	      0.90416854	     -0.22846582	     18.43156345	     -4.79928470	     -3.81726920	     71.08390206	      1.24064814	    -12.27549086	    -11.58635653	     -6.95397611	     15.72322746	      7.03336532	      4.81735965	     22.37245751	      0.39047305	      7.93748016	    -14.66865081	     -6.95397611	     -7.12031588	      0.51167882	      1.22354131	      4.19769864	    -14.46188313	      9.26630088	     47.78398679	    106.10670290	     -4.35395938	    -11.51754694	     -6.75441081	     37.91696320	    103.74856676
